<svg width="126" height="35" viewBox="0 0 126 35" fill="none" xmlns="http://www.w3.org/2000/svg">
<mask id="path-1-outside-1_1_4" maskUnits="userSpaceOnUse" x="0" y="0" width="126" height="36" fill="black">
<rect fill="white" width="126" height="36"/>
<path d="M0.704 27V26.68L1.376 26.424C2.05867 26.1467 2.4 25.6027 2.4 24.792V8.088C2.4 7.23467 2.05867 6.69067 1.376 6.456L0.704 6.2V5.88H9.152C11.4133 5.88 13.3547 6.30667 14.976 7.16C16.6187 7.992 17.8773 9.19733 18.752 10.776C19.648 12.3333 20.096 14.2107 20.096 16.408C20.096 18.648 19.616 20.5573 18.656 22.136C17.696 23.7147 16.352 24.92 14.624 25.752C12.9173 26.584 10.9013 27 8.576 27H0.704ZM7.2 26.36H8.576C10.112 26.36 11.3493 26.0613 12.288 25.464C13.2267 24.8453 13.9093 23.8213 14.336 22.392C14.784 20.9413 15.008 18.9573 15.008 16.44C15.008 13.9227 14.784 11.9493 14.336 10.52C13.9093 9.06933 13.2373 8.04533 12.32 7.448C11.4027 6.82933 10.1973 6.52 8.704 6.52H7.2V26.36ZM23.5528 27V26.68L24.2888 26.392C24.6514 26.2427 24.8968 26.0507 25.0248 25.816C25.1741 25.56 25.2488 25.2187 25.2488 24.792V8.088C25.2488 7.66133 25.1848 7.33067 25.0568 7.096C24.9501 6.84 24.6941 6.63733 24.2888 6.488L23.5528 6.2V5.88H38.8808L39.0728 10.808H38.7528L37.3768 7.8C37.1848 7.416 36.9821 7.10667 36.7688 6.872C36.5554 6.63733 36.2354 6.52 35.8088 6.52H30.0488V15.768H33.4728C33.8994 15.768 34.2194 15.6613 34.4328 15.448C34.6674 15.2133 34.8701 14.904 35.0408 14.52L35.6808 13.24H36.0008V19H35.6808L35.0408 17.656C34.8488 17.272 34.6461 16.9733 34.4328 16.76C34.2194 16.5253 33.8994 16.408 33.4728 16.408H30.0488V26.36H36.5128C36.9394 26.36 37.2701 26.2533 37.5048 26.04C37.7394 25.8053 37.9314 25.4853 38.0808 25.08L39.3928 22.072H39.7128L39.5208 27H23.5528ZM52.2855 27.096L45.4375 8.024C45.2882 7.59733 45.0855 7.26667 44.8295 7.032C44.5948 6.776 44.2642 6.584 43.8375 6.456L43.0695 6.2V5.88H52.2855V6.2L51.2935 6.488C50.8028 6.616 50.5255 6.84 50.4615 7.16C50.4188 7.48 50.4722 7.87467 50.6215 8.344L55.3575 22.392L60.1255 8.312C60.2962 7.82133 60.3708 7.416 60.3495 7.096C60.3495 6.776 60.1042 6.552 59.6135 6.424L58.7815 6.2V5.88H63.2615V6.2L62.3975 6.456C61.9922 6.56267 61.7042 6.75467 61.5335 7.032C61.3628 7.288 61.2028 7.62933 61.0535 8.056L54.6535 27.096H52.2855Z"/>
<path d="M81.6243 27.16C80.4083 27.16 79.4269 26.9787 78.6803 26.616C77.9549 26.2533 77.3576 25.752 76.8883 25.112C76.4402 24.4507 76.0456 23.672 75.7042 22.776C75.3629 21.88 75.0003 20.9093 74.6163 19.864C74.5309 19.5867 74.3282 19.3947 74.0082 19.288C73.6882 19.1813 73.3469 19.128 72.9842 19.128C72.4296 19.128 71.8749 19.2453 71.3202 19.48C70.7869 19.7147 70.3389 20.0667 69.9762 20.536C69.6349 21.0053 69.4642 21.5813 69.4642 22.264C69.4642 22.8613 69.5496 23.4373 69.7202 23.992C69.9122 24.5253 70.1256 25.1333 70.3602 25.816L68.0562 26.456C67.8856 25.9653 67.7042 25.496 67.5122 25.048C67.3416 24.6 67.2029 24.1307 67.0962 23.64C66.9896 23.1493 66.9362 22.6053 66.9362 22.008C66.9362 21.1333 67.1282 20.3547 67.5122 19.672C67.8962 18.9893 68.4082 18.4133 69.0482 17.944C69.6882 17.4747 70.3922 17.1227 71.1602 16.888C71.9282 16.632 72.6856 16.504 73.4322 16.504C73.7949 16.504 74.1789 16.536 74.5842 16.6C75.0109 16.664 75.3949 16.824 75.7362 17.08C76.0989 17.3147 76.3656 17.6987 76.5363 18.232C76.8776 19.192 77.1763 20.0667 77.4323 20.856C77.7096 21.624 78.0189 22.2853 78.3602 22.84C78.7016 23.3947 79.1496 23.8213 79.7043 24.12C80.2802 24.3973 81.0269 24.536 81.9443 24.536C82.3923 24.536 82.7123 24.664 82.9043 24.92C83.1176 25.1547 83.2243 25.4427 83.2243 25.784C83.2243 26.1253 83.0749 26.4453 82.7763 26.744C82.4776 27.0213 82.0936 27.16 81.6243 27.16ZM81.5767 9.4L80.3927 7.608C81.2247 7.096 82.2167 6.488 83.3687 5.784C84.5421 5.08 85.8861 4.30133 87.4007 3.448C88.9154 2.59467 90.5901 1.688 92.4248 0.727999L93.3208 2.68C91.4647 3.66133 89.8114 4.55733 88.3607 5.368C86.9314 6.17867 85.6621 6.91467 84.5527 7.576C83.4434 8.23733 82.4514 8.84533 81.5767 9.4ZM81.6087 27.16L81.9287 24.536H84.9367C86.1954 24.536 87.1874 24.472 87.9127 24.344C88.6594 24.1947 89.2034 24.0133 89.5447 23.8C89.9074 23.5653 90.1421 23.32 90.2487 23.064C90.3767 22.7867 90.4408 22.5093 90.4408 22.232C90.4408 21.7413 90.2488 21.1333 89.8647 20.408C89.5021 19.6827 88.7447 18.744 87.5927 17.592C86.9954 16.9947 86.3981 16.4507 85.8007 15.96C85.2034 15.448 84.6487 15 84.1367 14.616C83.6461 14.2107 83.2514 13.8693 82.9527 13.592C82.6541 13.3147 82.5047 13.1013 82.5047 12.952C82.5047 12.632 82.5261 12.3227 82.5687 12.024C82.6327 11.7253 82.7074 11.448 82.7927 11.192C82.8994 10.936 83.0274 10.7333 83.1767 10.584C83.6034 10.136 84.1474 9.688 84.8087 9.24C85.4914 8.792 86.2807 8.32267 87.1767 7.832C88.0941 7.34133 89.1181 6.81867 90.2487 6.264C91.4007 5.688 92.6594 5.05867 94.0247 4.376L95.1128 6.744C93.4061 7.55467 91.9767 8.248 90.8247 8.824C89.6941 9.37867 88.7341 9.88 87.9447 10.328C87.1554 10.7547 86.4621 11.16 85.8647 11.544C85.2674 11.928 84.6594 12.3547 84.0407 12.824L84.5207 11.608C85.8647 12.6747 87.0487 13.6773 88.0727 14.616C89.1181 15.5547 89.9927 16.4613 90.6967 17.336C91.4007 18.1893 91.9341 19.032 92.2968 19.864C92.6594 20.696 92.8407 21.5387 92.8407 22.392C92.8407 22.8613 92.7554 23.3733 92.5848 23.928C92.4141 24.4827 92.0514 25.0053 91.4967 25.496C90.9421 25.9867 90.1101 26.392 89.0007 26.712C87.8914 27.0107 86.3981 27.16 84.5207 27.16H81.6087ZM94.9242 34.424L93.9962 31.992C95.5536 31.48 96.8442 30.8933 97.8682 30.232C98.9136 29.5707 99.7349 28.8667 100.332 28.12C100.951 27.3733 101.388 26.616 101.644 25.848C101.9 25.0587 102.028 24.3013 102.028 23.576C102.028 22.5307 101.794 21.4747 101.324 20.408C100.876 19.32 100.375 18.296 99.8202 17.336L102.156 16.152C102.562 16.8987 102.914 17.6347 103.212 18.36C103.532 19.0853 103.81 19.768 104.044 20.408C104.3 21.048 104.503 21.6347 104.652 22.168C104.951 23.0853 105.335 23.7147 105.804 24.056C106.295 24.376 106.956 24.536 107.788 24.536C108.236 24.536 108.556 24.664 108.748 24.92C108.962 25.1547 109.068 25.4427 109.068 25.784C109.068 26.1253 108.919 26.4453 108.62 26.744C108.322 27.0213 107.938 27.16 107.468 27.16C106.53 27.16 105.762 27 105.164 26.68C104.588 26.3387 104.151 25.9013 103.852 25.368C103.554 24.8133 103.351 24.2373 103.244 23.64L104.268 24.216C104.268 25.624 103.948 26.904 103.308 28.056C102.69 29.2293 101.89 30.2427 100.908 31.096C99.9269 31.9707 98.9029 32.6853 97.8362 33.24C96.7696 33.7947 95.7989 34.1893 94.9242 34.424ZM107.484 27.16L107.772 24.536C108.881 24.536 109.969 24.4507 111.036 24.28C112.102 24.1093 113.148 23.864 114.172 23.544C115.196 23.224 116.177 22.84 117.116 22.392C118.076 21.9227 118.982 21.3893 119.836 20.792C119.281 20.3013 118.641 19.8747 117.916 19.512C117.19 19.1493 116.39 18.872 115.516 18.68C114.662 18.4667 113.756 18.36 112.796 18.36C112.454 18.36 112.134 18.3707 111.836 18.392C111.537 18.4133 111.238 18.456 110.94 18.52C110.641 18.5627 110.3 18.6267 109.916 18.712L109.404 16.28C109.98 16.1093 110.556 15.9813 111.132 15.896C111.708 15.7893 112.262 15.736 112.796 15.736C113.905 15.736 114.908 15.8747 115.804 16.152C116.7 16.408 117.51 16.728 118.236 17.112C118.982 17.496 119.676 17.88 120.316 18.264C120.977 18.648 121.617 18.9787 122.236 19.256C122.854 19.512 123.494 19.64 124.156 19.64H124.828L125.052 21.944C124.134 21.944 123.292 22.072 122.524 22.328C121.756 22.584 120.998 22.9147 120.252 23.32C119.526 23.704 118.758 24.12 117.948 24.568C117.137 24.9947 116.241 25.4107 115.26 25.816C114.278 26.2 113.148 26.52 111.868 26.776C110.609 27.032 109.148 27.16 107.484 27.16ZM116.412 32.952C115.964 32.952 115.58 32.792 115.26 32.472C114.961 32.1733 114.812 31.8107 114.812 31.384C114.812 30.9573 114.961 30.584 115.26 30.264C115.58 29.944 115.964 29.784 116.412 29.784C116.838 29.784 117.201 29.944 117.5 30.264C117.82 30.584 117.98 30.9573 117.98 31.384C117.98 31.8107 117.82 32.1733 117.5 32.472C117.201 32.792 116.838 32.952 116.412 32.952Z"/>
</mask>
<path d="M0.704 27V26.68L1.376 26.424C2.05867 26.1467 2.4 25.6027 2.4 24.792V8.088C2.4 7.23467 2.05867 6.69067 1.376 6.456L0.704 6.2V5.88H9.152C11.4133 5.88 13.3547 6.30667 14.976 7.16C16.6187 7.992 17.8773 9.19733 18.752 10.776C19.648 12.3333 20.096 14.2107 20.096 16.408C20.096 18.648 19.616 20.5573 18.656 22.136C17.696 23.7147 16.352 24.92 14.624 25.752C12.9173 26.584 10.9013 27 8.576 27H0.704ZM7.2 26.36H8.576C10.112 26.36 11.3493 26.0613 12.288 25.464C13.2267 24.8453 13.9093 23.8213 14.336 22.392C14.784 20.9413 15.008 18.9573 15.008 16.44C15.008 13.9227 14.784 11.9493 14.336 10.52C13.9093 9.06933 13.2373 8.04533 12.32 7.448C11.4027 6.82933 10.1973 6.52 8.704 6.52H7.2V26.36ZM23.5528 27V26.68L24.2888 26.392C24.6514 26.2427 24.8968 26.0507 25.0248 25.816C25.1741 25.56 25.2488 25.2187 25.2488 24.792V8.088C25.2488 7.66133 25.1848 7.33067 25.0568 7.096C24.9501 6.84 24.6941 6.63733 24.2888 6.488L23.5528 6.2V5.88H38.8808L39.0728 10.808H38.7528L37.3768 7.8C37.1848 7.416 36.9821 7.10667 36.7688 6.872C36.5554 6.63733 36.2354 6.52 35.8088 6.52H30.0488V15.768H33.4728C33.8994 15.768 34.2194 15.6613 34.4328 15.448C34.6674 15.2133 34.8701 14.904 35.0408 14.52L35.6808 13.24H36.0008V19H35.6808L35.0408 17.656C34.8488 17.272 34.6461 16.9733 34.4328 16.76C34.2194 16.5253 33.8994 16.408 33.4728 16.408H30.0488V26.36H36.5128C36.9394 26.36 37.2701 26.2533 37.5048 26.04C37.7394 25.8053 37.9314 25.4853 38.0808 25.08L39.3928 22.072H39.7128L39.5208 27H23.5528ZM52.2855 27.096L45.4375 8.024C45.2882 7.59733 45.0855 7.26667 44.8295 7.032C44.5948 6.776 44.2642 6.584 43.8375 6.456L43.0695 6.2V5.88H52.2855V6.2L51.2935 6.488C50.8028 6.616 50.5255 6.84 50.4615 7.16C50.4188 7.48 50.4722 7.87467 50.6215 8.344L55.3575 22.392L60.1255 8.312C60.2962 7.82133 60.3708 7.416 60.3495 7.096C60.3495 6.776 60.1042 6.552 59.6135 6.424L58.7815 6.2V5.88H63.2615V6.2L62.3975 6.456C61.9922 6.56267 61.7042 6.75467 61.5335 7.032C61.3628 7.288 61.2028 7.62933 61.0535 8.056L54.6535 27.096H52.2855Z" fill="#FC3431"/>
<path d="M81.6243 27.16C80.4083 27.16 79.4269 26.9787 78.6803 26.616C77.9549 26.2533 77.3576 25.752 76.8883 25.112C76.4402 24.4507 76.0456 23.672 75.7042 22.776C75.3629 21.88 75.0003 20.9093 74.6163 19.864C74.5309 19.5867 74.3282 19.3947 74.0082 19.288C73.6882 19.1813 73.3469 19.128 72.9842 19.128C72.4296 19.128 71.8749 19.2453 71.3202 19.48C70.7869 19.7147 70.3389 20.0667 69.9762 20.536C69.6349 21.0053 69.4642 21.5813 69.4642 22.264C69.4642 22.8613 69.5496 23.4373 69.7202 23.992C69.9122 24.5253 70.1256 25.1333 70.3602 25.816L68.0562 26.456C67.8856 25.9653 67.7042 25.496 67.5122 25.048C67.3416 24.6 67.2029 24.1307 67.0962 23.64C66.9896 23.1493 66.9362 22.6053 66.9362 22.008C66.9362 21.1333 67.1282 20.3547 67.5122 19.672C67.8962 18.9893 68.4082 18.4133 69.0482 17.944C69.6882 17.4747 70.3922 17.1227 71.1602 16.888C71.9282 16.632 72.6856 16.504 73.4322 16.504C73.7949 16.504 74.1789 16.536 74.5842 16.6C75.0109 16.664 75.3949 16.824 75.7362 17.08C76.0989 17.3147 76.3656 17.6987 76.5363 18.232C76.8776 19.192 77.1763 20.0667 77.4323 20.856C77.7096 21.624 78.0189 22.2853 78.3602 22.84C78.7016 23.3947 79.1496 23.8213 79.7043 24.12C80.2802 24.3973 81.0269 24.536 81.9443 24.536C82.3923 24.536 82.7123 24.664 82.9043 24.92C83.1176 25.1547 83.2243 25.4427 83.2243 25.784C83.2243 26.1253 83.0749 26.4453 82.7763 26.744C82.4776 27.0213 82.0936 27.16 81.6243 27.16ZM81.5767 9.4L80.3927 7.608C81.2247 7.096 82.2167 6.488 83.3687 5.784C84.5421 5.08 85.8861 4.30133 87.4007 3.448C88.9154 2.59467 90.5901 1.688 92.4248 0.727999L93.3208 2.68C91.4647 3.66133 89.8114 4.55733 88.3607 5.368C86.9314 6.17867 85.6621 6.91467 84.5527 7.576C83.4434 8.23733 82.4514 8.84533 81.5767 9.4ZM81.6087 27.16L81.9287 24.536H84.9367C86.1954 24.536 87.1874 24.472 87.9127 24.344C88.6594 24.1947 89.2034 24.0133 89.5447 23.8C89.9074 23.5653 90.1421 23.32 90.2487 23.064C90.3767 22.7867 90.4408 22.5093 90.4408 22.232C90.4408 21.7413 90.2488 21.1333 89.8647 20.408C89.5021 19.6827 88.7447 18.744 87.5927 17.592C86.9954 16.9947 86.3981 16.4507 85.8007 15.96C85.2034 15.448 84.6487 15 84.1367 14.616C83.6461 14.2107 83.2514 13.8693 82.9527 13.592C82.6541 13.3147 82.5047 13.1013 82.5047 12.952C82.5047 12.632 82.5261 12.3227 82.5687 12.024C82.6327 11.7253 82.7074 11.448 82.7927 11.192C82.8994 10.936 83.0274 10.7333 83.1767 10.584C83.6034 10.136 84.1474 9.688 84.8087 9.24C85.4914 8.792 86.2807 8.32267 87.1767 7.832C88.0941 7.34133 89.1181 6.81867 90.2487 6.264C91.4007 5.688 92.6594 5.05867 94.0247 4.376L95.1128 6.744C93.4061 7.55467 91.9767 8.248 90.8247 8.824C89.6941 9.37867 88.7341 9.88 87.9447 10.328C87.1554 10.7547 86.4621 11.16 85.8647 11.544C85.2674 11.928 84.6594 12.3547 84.0407 12.824L84.5207 11.608C85.8647 12.6747 87.0487 13.6773 88.0727 14.616C89.1181 15.5547 89.9927 16.4613 90.6967 17.336C91.4007 18.1893 91.9341 19.032 92.2968 19.864C92.6594 20.696 92.8407 21.5387 92.8407 22.392C92.8407 22.8613 92.7554 23.3733 92.5848 23.928C92.4141 24.4827 92.0514 25.0053 91.4967 25.496C90.9421 25.9867 90.1101 26.392 89.0007 26.712C87.8914 27.0107 86.3981 27.16 84.5207 27.16H81.6087ZM94.9242 34.424L93.9962 31.992C95.5536 31.48 96.8442 30.8933 97.8682 30.232C98.9136 29.5707 99.7349 28.8667 100.332 28.12C100.951 27.3733 101.388 26.616 101.644 25.848C101.9 25.0587 102.028 24.3013 102.028 23.576C102.028 22.5307 101.794 21.4747 101.324 20.408C100.876 19.32 100.375 18.296 99.8202 17.336L102.156 16.152C102.562 16.8987 102.914 17.6347 103.212 18.36C103.532 19.0853 103.81 19.768 104.044 20.408C104.3 21.048 104.503 21.6347 104.652 22.168C104.951 23.0853 105.335 23.7147 105.804 24.056C106.295 24.376 106.956 24.536 107.788 24.536C108.236 24.536 108.556 24.664 108.748 24.92C108.962 25.1547 109.068 25.4427 109.068 25.784C109.068 26.1253 108.919 26.4453 108.62 26.744C108.322 27.0213 107.938 27.16 107.468 27.16C106.53 27.16 105.762 27 105.164 26.68C104.588 26.3387 104.151 25.9013 103.852 25.368C103.554 24.8133 103.351 24.2373 103.244 23.64L104.268 24.216C104.268 25.624 103.948 26.904 103.308 28.056C102.69 29.2293 101.89 30.2427 100.908 31.096C99.9269 31.9707 98.9029 32.6853 97.8362 33.24C96.7696 33.7947 95.7989 34.1893 94.9242 34.424ZM107.484 27.16L107.772 24.536C108.881 24.536 109.969 24.4507 111.036 24.28C112.102 24.1093 113.148 23.864 114.172 23.544C115.196 23.224 116.177 22.84 117.116 22.392C118.076 21.9227 118.982 21.3893 119.836 20.792C119.281 20.3013 118.641 19.8747 117.916 19.512C117.19 19.1493 116.39 18.872 115.516 18.68C114.662 18.4667 113.756 18.36 112.796 18.36C112.454 18.36 112.134 18.3707 111.836 18.392C111.537 18.4133 111.238 18.456 110.94 18.52C110.641 18.5627 110.3 18.6267 109.916 18.712L109.404 16.28C109.98 16.1093 110.556 15.9813 111.132 15.896C111.708 15.7893 112.262 15.736 112.796 15.736C113.905 15.736 114.908 15.8747 115.804 16.152C116.7 16.408 117.51 16.728 118.236 17.112C118.982 17.496 119.676 17.88 120.316 18.264C120.977 18.648 121.617 18.9787 122.236 19.256C122.854 19.512 123.494 19.64 124.156 19.64H124.828L125.052 21.944C124.134 21.944 123.292 22.072 122.524 22.328C121.756 22.584 120.998 22.9147 120.252 23.32C119.526 23.704 118.758 24.12 117.948 24.568C117.137 24.9947 116.241 25.4107 115.26 25.816C114.278 26.2 113.148 26.52 111.868 26.776C110.609 27.032 109.148 27.16 107.484 27.16ZM116.412 32.952C115.964 32.952 115.58 32.792 115.26 32.472C114.961 32.1733 114.812 31.8107 114.812 31.384C114.812 30.9573 114.961 30.584 115.26 30.264C115.58 29.944 115.964 29.784 116.412 29.784C116.838 29.784 117.201 29.944 117.5 30.264C117.82 30.584 117.98 30.9573 117.98 31.384C117.98 31.8107 117.82 32.1733 117.5 32.472C117.201 32.792 116.838 32.952 116.412 32.952Z" fill="white"/>
<path d="M0.704 27H0.204V27.5H0.704V27ZM0.704 26.68L0.526002 26.2128L0.204 26.3354V26.68H0.704ZM1.376 26.424L1.55404 26.8914L1.56419 26.8872L1.376 26.424ZM1.376 6.456L1.198 6.92324L1.20569 6.92617L1.21346 6.92884L1.376 6.456ZM0.704 6.2H0.204V6.54457L0.526002 6.66724L0.704 6.2ZM0.704 5.88V5.38H0.204V5.88H0.704ZM14.976 7.16L14.7431 7.60251L14.7501 7.60605L14.976 7.16ZM18.752 10.776L18.3146 11.0184L18.3186 11.0253L18.752 10.776ZM18.656 22.136L18.2288 21.8762H18.2288L18.656 22.136ZM14.624 25.752L14.4071 25.3015L14.4049 25.3026L14.624 25.752ZM7.2 26.36H6.7V26.86H7.2V26.36ZM12.288 25.464L12.5565 25.8859L12.5632 25.8815L12.288 25.464ZM14.336 22.392L13.8582 22.2445L13.8569 22.249L14.336 22.392ZM14.336 10.52L13.8562 10.6611L13.8589 10.6695L14.336 10.52ZM12.32 7.448L12.0404 7.86259L12.0472 7.867L12.32 7.448ZM7.2 6.52V6.02H6.7V6.52H7.2ZM1.204 27V26.68H0.204V27H1.204ZM0.881998 27.1472L1.554 26.8912L1.198 25.9568L0.526002 26.2128L0.881998 27.1472ZM1.56419 26.8872C1.98788 26.7151 2.33312 26.4473 2.56753 26.0737C2.79975 25.7037 2.9 25.2669 2.9 24.792H1.9C1.9 25.1278 1.82959 25.3683 1.72047 25.5423C1.61354 25.7127 1.44678 25.8556 1.18781 25.9608L1.56419 26.8872ZM2.9 24.792V8.088H1.9V24.792H2.9ZM2.9 8.088C2.9 7.59746 2.80207 7.14805 2.56753 6.77425C2.32858 6.39342 1.97379 6.13277 1.53854 5.98316L1.21346 6.92884C1.46088 7.01389 1.61809 7.14258 1.72047 7.30574C1.82726 7.47595 1.9 7.7252 1.9 8.088H2.9ZM1.554 5.98876L0.881998 5.73275L0.526002 6.66724L1.198 6.92324L1.554 5.98876ZM1.204 6.2V5.88H0.204V6.2H1.204ZM0.704 6.38H9.152V5.38H0.704V6.38ZM9.152 6.38C11.3509 6.38 13.2085 6.79477 14.7431 7.60246L15.2089 6.71754C13.5008 5.81857 11.4758 5.38 9.152 5.38V6.38ZM14.7501 7.60605C16.3054 8.3938 17.4895 9.52906 18.3146 11.0183L19.1894 10.5337C18.2652 8.8656 16.9319 7.59019 15.2019 6.71395L14.7501 7.60605ZM18.3186 11.0253C19.1622 12.4916 19.596 14.2788 19.596 16.408H20.596C20.596 14.1426 20.1338 12.1751 19.1854 10.5267L18.3186 11.0253ZM19.596 16.408C19.596 18.5759 19.132 20.391 18.2288 21.8762L19.0832 22.3958C20.1 20.7237 20.596 18.7201 20.596 16.408H19.596ZM18.2288 21.8762C17.321 23.3691 16.0515 24.5097 14.4071 25.3015L14.8409 26.2025C16.6525 25.3303 18.071 24.0603 19.0832 22.3958L18.2288 21.8762ZM14.4049 25.3026C12.7801 26.0947 10.8422 26.5 8.576 26.5V27.5C10.9605 27.5 13.0546 27.0733 14.8431 26.2014L14.4049 25.3026ZM8.576 26.5H0.704V27.5H8.576V26.5ZM7.2 26.86H8.576V25.86H7.2V26.86ZM8.576 26.86C10.1722 26.86 11.5125 26.5502 12.5564 25.8858L12.0196 25.0422C11.1862 25.5725 10.0518 25.86 8.576 25.86V26.86ZM12.5632 25.8815C13.6281 25.1796 14.3659 24.0398 14.8151 22.535L13.8569 22.249C13.4528 23.6028 12.8253 24.5111 12.0128 25.0465L12.5632 25.8815ZM14.8137 22.5395C15.283 21.02 15.508 18.9791 15.508 16.44H14.508C14.508 18.9356 14.285 20.8627 13.8583 22.2445L14.8137 22.5395ZM15.508 16.44C15.508 13.9015 15.2831 11.87 14.8131 10.3705L13.8589 10.6695C14.2849 12.0287 14.508 13.9439 14.508 16.44H15.508ZM14.8157 10.3789C14.3682 8.85739 13.6424 7.71243 12.5928 7.029L12.0472 7.867C12.8323 8.37824 13.4505 9.28127 13.8563 10.6611L14.8157 10.3789ZM12.5996 7.03346C11.5753 6.3427 10.2629 6.02 8.704 6.02V7.02C10.1317 7.02 11.23 7.31597 12.0404 7.86254L12.5996 7.03346ZM8.704 6.02H7.2V7.02H8.704V6.02ZM6.7 6.52V26.36H7.7V6.52H6.7ZM23.5528 27H23.0528V27.5H23.5528V27ZM23.5528 26.68L23.3706 26.2144L23.0528 26.3387V26.68H23.5528ZM24.2888 26.392L24.471 26.8577L24.4791 26.8543L24.2888 26.392ZM25.0248 25.816L24.5929 25.5641L24.5892 25.5703L24.5858 25.5766L25.0248 25.816ZM25.0568 7.096L24.5952 7.28831L24.6053 7.31246L24.6178 7.33542L25.0568 7.096ZM24.2888 6.488L24.1065 6.95371L24.1159 6.95717L24.2888 6.488ZM23.5528 6.2H23.0528V6.54126L23.3706 6.66562L23.5528 6.2ZM23.5528 5.88V5.38H23.0528V5.88H23.5528ZM38.8808 5.88L39.3804 5.86053L39.3617 5.38H38.8808V5.88ZM39.0728 10.808V11.308H39.5926L39.5724 10.7885L39.0728 10.808ZM38.7528 10.808L38.2981 11.016L38.4316 11.308H38.7528V10.808ZM37.3768 7.8L37.8314 7.592L37.8278 7.58413L37.824 7.57639L37.3768 7.8ZM36.7688 6.872L36.3988 7.20834L36.7688 6.872ZM30.0488 6.52V6.02H29.5488V6.52H30.0488ZM30.0488 15.768H29.5488V16.268H30.0488V15.768ZM34.4328 15.448L34.0792 15.0944V15.0944L34.4328 15.448ZM35.0408 14.52L34.5935 14.2964L34.5885 14.3066L34.5838 14.3169L35.0408 14.52ZM35.6808 13.24V12.74H35.3717L35.2335 13.0164L35.6808 13.24ZM36.0008 13.24H36.5008V12.74H36.0008V13.24ZM36.0008 19V19.5H36.5008V19H36.0008ZM35.6808 19L35.2293 19.215L35.3651 19.5H35.6808V19ZM35.0408 17.656L35.4923 17.441L35.488 17.4324L35.0408 17.656ZM34.4328 16.76L34.0628 17.0963L34.0708 17.1051L34.0792 17.1136L34.4328 16.76ZM30.0488 16.408V15.908H29.5488V16.408H30.0488ZM30.0488 26.36H29.5488V26.86H30.0488V26.36ZM37.5048 26.04L37.8411 26.41L37.8499 26.402L37.8583 26.3936L37.5048 26.04ZM38.0807 25.08L37.6224 24.8801L37.6166 24.8935L37.6116 24.9071L38.0807 25.08ZM39.3928 22.072V21.572H39.0653L38.9344 21.8721L39.3928 22.072ZM39.7128 22.072L40.2124 22.0915L40.2326 21.572H39.7128V22.072ZM39.5208 27V27.5H40.0017L40.0204 27.0195L39.5208 27ZM24.0528 27V26.68H23.0528V27H24.0528ZM23.735 27.1456L24.471 26.8576L24.1066 25.9264L23.3706 26.2144L23.735 27.1456ZM24.4791 26.8543C24.8998 26.6811 25.2603 26.4283 25.4637 26.0554L24.5858 25.5766C24.5332 25.673 24.403 25.8042 24.0984 25.9297L24.4791 26.8543ZM25.4566 26.0679C25.666 25.7091 25.7488 25.2706 25.7488 24.792H24.7488C24.7488 25.1668 24.6822 25.4109 24.5929 25.5641L25.4566 26.0679ZM25.7488 24.792V8.088H24.7488V24.792H25.7488ZM25.7488 8.088C25.7488 7.6225 25.6808 7.19594 25.4957 6.85657L24.6178 7.33542C24.6887 7.46539 24.7488 7.70016 24.7488 8.088H25.7488ZM25.5183 6.90369C25.3345 6.46258 24.9258 6.18985 24.4616 6.01883L24.1159 6.95717C24.4624 7.08481 24.5657 7.21742 24.5952 7.28831L25.5183 6.90369ZM24.471 6.02238L23.735 5.73438L23.3706 6.66562L24.1066 6.95362L24.471 6.02238ZM24.0528 6.2V5.88H23.0528V6.2H24.0528ZM23.5528 6.38H38.8808V5.38H23.5528V6.38ZM38.3811 5.89946L38.5731 10.8275L39.5724 10.7885L39.3804 5.86053L38.3811 5.89946ZM39.0728 10.308H38.7528V11.308H39.0728V10.308ZM39.2074 10.6L37.8314 7.592L36.9221 8.00799L38.2981 11.016L39.2074 10.6ZM37.824 7.57639C37.6182 7.16487 37.3915 6.81374 37.1387 6.53566L36.3988 7.20834C36.5727 7.39959 36.7513 7.66713 36.9295 8.02361L37.824 7.57639ZM37.1387 6.53566C36.8011 6.16428 36.3254 6.02 35.8088 6.02V7.02C36.1454 7.02 36.3097 7.11039 36.3988 7.20834L37.1387 6.53566ZM35.8088 6.02H30.0488V7.02H35.8088V6.02ZM29.5488 6.52V15.768H30.5488V6.52H29.5488ZM30.0488 16.268H33.4728V15.268H30.0488V16.268ZM33.4728 16.268C33.9765 16.268 34.4461 16.1417 34.7863 15.8016L34.0792 15.0944C33.9927 15.1809 33.8223 15.268 33.4728 15.268V16.268ZM34.7863 15.8016C35.0742 15.5137 35.3084 15.1488 35.4977 14.7231L34.5838 14.3169C34.4317 14.6592 34.2606 14.913 34.0792 15.0944L34.7863 15.8016ZM35.488 14.7436L36.128 13.4636L35.2335 13.0164L34.5935 14.2964L35.488 14.7436ZM35.6808 13.74H36.0008V12.74H35.6808V13.74ZM35.5008 13.24V19H36.5008V13.24H35.5008ZM36.0008 18.5H35.6808V19.5H36.0008V18.5ZM36.1322 18.785L35.4922 17.441L34.5893 17.871L35.2293 19.215L36.1322 18.785ZM35.488 17.4324C35.2812 17.0189 35.05 16.6701 34.7863 16.4064L34.0792 17.1136C34.2422 17.2765 34.4163 17.5251 34.5935 17.8796L35.488 17.4324ZM34.8027 16.4237C34.4651 16.0523 33.9894 15.908 33.4728 15.908V16.908C33.8094 16.908 33.9737 16.9984 34.0628 17.0963L34.8027 16.4237ZM33.4728 15.908H30.0488V16.908H33.4728V15.908ZM29.5488 16.408V26.36H30.5488V16.408H29.5488ZM30.0488 26.86H36.5128V25.86H30.0488V26.86ZM36.5128 26.86C37.0202 26.86 37.4865 26.7323 37.8411 26.41L37.1684 25.67C37.0536 25.7744 36.8586 25.86 36.5128 25.86V26.86ZM37.8583 26.3936C38.1571 26.0947 38.3828 25.7064 38.5499 25.2529L37.6116 24.9071C37.48 25.2642 37.3217 25.5159 37.1512 25.6864L37.8583 26.3936ZM38.5391 25.2799L39.8511 22.2719L38.9344 21.8721L37.6224 24.8801L38.5391 25.2799ZM39.3928 22.572H39.7128V21.572H39.3928V22.572ZM39.2131 22.0525L39.0211 26.9805L40.0204 27.0195L40.2124 22.0915L39.2131 22.0525ZM39.5208 26.5H23.5528V27.5H39.5208V26.5ZM52.2855 27.096L51.8149 27.265L51.9338 27.596H52.2855V27.096ZM45.4375 8.024L44.9656 8.18918L44.9669 8.19297L45.4375 8.024ZM44.8295 7.032L44.4609 7.36986L44.4756 7.38589L44.4916 7.40058L44.8295 7.032ZM43.8375 6.456L43.6794 6.93034L43.6866 6.93274L43.6938 6.93491L43.8375 6.456ZM43.0695 6.2H42.5695V6.56038L42.9114 6.67434L43.0695 6.2ZM43.0695 5.88V5.38H42.5695V5.88H43.0695ZM52.2855 5.88H52.7855V5.38H52.2855V5.88ZM52.2855 6.2L52.4249 6.68017L52.7855 6.57548V6.2H52.2855ZM51.2935 6.488L51.4198 6.97199L51.4329 6.96817L51.2935 6.488ZM50.4615 7.16L49.9712 7.06194L49.968 7.07784L49.9659 7.09392L50.4615 7.16ZM50.6215 8.344L50.145 8.49562L50.1477 8.50373L50.6215 8.344ZM55.3575 22.392L54.8837 22.5517L55.3564 23.954L55.8311 22.5524L55.3575 22.392ZM60.1255 8.312L59.6532 8.14773L59.6519 8.15163L60.1255 8.312ZM60.3495 7.096H59.8495V7.11265L59.8506 7.12926L60.3495 7.096ZM59.6135 6.424L59.4835 6.90682L59.4873 6.90781L59.6135 6.424ZM58.7815 6.2H58.2815V6.58319L58.6515 6.68281L58.7815 6.2ZM58.7815 5.88V5.38H58.2815V5.88H58.7815ZM63.2615 5.88H63.7615V5.38H63.2615V5.88ZM63.2615 6.2L63.4035 6.6794L63.7615 6.57334V6.2H63.2615ZM62.3975 6.456L62.5247 6.93954L62.5322 6.93758L62.5395 6.9354L62.3975 6.456ZM61.5335 7.032L61.9495 7.30935L61.9546 7.30179L61.9593 7.29405L61.5335 7.032ZM61.0535 8.056L60.5815 7.89081L60.5796 7.89669L61.0535 8.056ZM54.6535 27.096V27.596H55.0129L55.1274 27.2553L54.6535 27.096ZM52.7561 26.927L45.9081 7.85503L44.9669 8.19297L51.8149 27.265L52.7561 26.927ZM45.9094 7.85882C45.7408 7.37708 45.4997 6.96808 45.1674 6.66342L44.4916 7.40058C44.6713 7.56525 44.8355 7.81758 44.9656 8.18917L45.9094 7.85882ZM45.1981 6.69414C44.8876 6.35542 44.4702 6.12379 43.9812 5.97709L43.6938 6.93491C44.0582 7.04421 44.3021 7.19658 44.4609 7.36986L45.1981 6.69414ZM43.9956 5.98166L43.2276 5.72566L42.9114 6.67434L43.6794 6.93034L43.9956 5.98166ZM43.5695 6.2V5.88H42.5695V6.2H43.5695ZM43.0695 6.38H52.2855V5.38H43.0695V6.38ZM51.7855 5.88V6.2H52.7855V5.88H51.7855ZM52.1461 5.71983L51.1541 6.00783L51.4329 6.96817L52.4249 6.68017L52.1461 5.71983ZM51.1673 6.00419C50.6048 6.15092 50.0912 6.46177 49.9712 7.06194L50.9518 7.25806C50.9598 7.21822 51.0009 7.08107 51.4197 6.97181L51.1673 6.00419ZM49.9659 7.09392C49.9097 7.51525 49.984 7.98947 50.145 8.4956L51.098 8.1924C50.9603 7.75987 50.928 7.44475 50.9571 7.22608L49.9659 7.09392ZM50.1477 8.50373L54.8837 22.5517L55.8313 22.2323L51.0953 8.18427L50.1477 8.50373ZM55.8311 22.5524L60.5991 8.47237L59.6519 8.15163L54.8839 22.2316L55.8311 22.5524ZM60.5978 8.47626C60.7785 7.95674 60.8761 7.47847 60.8484 7.06274L59.8506 7.12926C59.8656 7.35353 59.8139 7.68592 59.6533 8.14774L60.5978 8.47626ZM60.8495 7.096C60.8495 6.78954 60.7246 6.52139 60.5026 6.31876C60.2966 6.13066 60.0259 6.01484 59.7397 5.94019L59.4873 6.90781C59.6918 6.96116 59.789 7.02133 59.8284 7.05724C59.8371 7.06521 59.842 7.07107 59.8445 7.07442C59.8469 7.07767 59.8476 7.07932 59.8477 7.07955C59.8478 7.07976 59.8481 7.08031 59.8484 7.08195C59.8488 7.08369 59.8495 7.0881 59.8495 7.096H60.8495ZM59.7435 5.94119L58.9115 5.71719L58.6515 6.68281L59.4835 6.90681L59.7435 5.94119ZM59.2815 6.2V5.88H58.2815V6.2H59.2815ZM58.7815 6.38H63.2615V5.38H58.7815V6.38ZM62.7615 5.88V6.2H63.7615V5.88H62.7615ZM63.1195 5.7206L62.2555 5.9766L62.5395 6.9354L63.4035 6.6794L63.1195 5.7206ZM62.2703 5.97246C61.7777 6.10209 61.3634 6.35437 61.1077 6.76995L61.9593 7.29405C62.0449 7.15496 62.2067 7.02325 62.5247 6.93954L62.2703 5.97246ZM61.1175 6.75465C60.9154 7.05769 60.7389 7.44124 60.5816 7.89083L61.5254 8.22117C61.6667 7.81743 61.8102 7.51831 61.9495 7.30935L61.1175 6.75465ZM60.5796 7.89669L54.1796 26.9367L55.1274 27.2553L61.5274 8.21531L60.5796 7.89669ZM54.6535 26.596H52.2855V27.596H54.6535V26.596ZM78.6803 26.616L78.4566 27.0632L78.4618 27.0658L78.6803 26.616ZM76.8883 25.112L76.4743 25.3924L76.4795 25.4002L76.485 25.4077L76.8883 25.112ZM75.7042 22.776L75.237 22.954V22.954L75.7042 22.776ZM74.6162 19.864L74.1384 20.011L74.1423 20.0238L74.1469 20.0364L74.6162 19.864ZM74.0082 19.288L73.8501 19.7623L74.0082 19.288ZM71.3203 19.48L71.1254 19.0195L71.1189 19.0223L71.3203 19.48ZM69.9762 20.536L69.5806 20.2303L69.5762 20.236L69.5719 20.2419L69.9762 20.536ZM69.7203 23.992L69.2424 24.139L69.2458 24.1503L69.2498 24.1614L69.7203 23.992ZM70.3603 25.816L70.4941 26.2978L71.0057 26.1556L70.8331 25.6535L70.3603 25.816ZM68.0563 26.456L67.584 26.6203L67.7381 27.0633L68.1901 26.9378L68.0563 26.456ZM67.5123 25.048L67.045 25.226L67.0486 25.2356L67.0527 25.245L67.5123 25.048ZM67.0963 23.64L66.6077 23.7462L67.0963 23.64ZM67.5123 19.672L67.0765 19.4269L67.5123 19.672ZM69.0482 17.944L68.7526 17.5408L69.0482 17.944ZM71.1602 16.888L71.3064 17.3663L71.3184 17.3623L71.1602 16.888ZM74.5843 16.6L74.5063 17.0939L74.5101 17.0945L74.5843 16.6ZM75.7363 17.08L75.4362 17.48L75.4501 17.4904L75.4646 17.4998L75.7363 17.08ZM76.5362 18.232L76.06 18.3844L76.0625 18.392L76.0651 18.3995L76.5362 18.232ZM77.4323 20.856L76.9566 21.0103L76.9592 21.0181L76.962 21.0258L77.4323 20.856ZM78.3603 22.84L77.9344 23.102L78.3603 22.84ZM79.7043 24.12L79.4672 24.5602L79.4772 24.5656L79.4873 24.5705L79.7043 24.12ZM82.9043 24.92L82.5042 25.22L82.5184 25.2389L82.5343 25.2563L82.9043 24.92ZM82.7763 26.744L83.1165 27.1104L83.1233 27.1041L83.1298 27.0976L82.7763 26.744ZM81.6243 26.66C80.4515 26.66 79.5531 26.4841 78.8987 26.1662L78.4618 27.0658C79.3007 27.4732 80.365 27.66 81.6243 27.66V26.66ZM78.9039 26.1688C78.248 25.8408 77.7128 25.3908 77.2915 24.8163L76.485 25.4077C77.0024 26.1132 77.6619 26.6658 78.4566 27.0632L78.9039 26.1688ZM77.3022 24.8316C76.8797 24.2078 76.5017 23.4649 76.1715 22.598L75.237 22.954C75.5894 23.8791 76.0008 24.6935 76.4743 25.3924L77.3022 24.8316ZM76.1715 22.598C75.831 21.7041 75.469 20.7353 75.0856 19.6916L74.1469 20.0364C74.5315 21.0833 74.8949 22.0559 75.237 22.954L76.1715 22.598ZM75.0941 19.717C74.9531 19.2586 74.611 18.9619 74.1664 18.8137L73.8501 19.7623C74.0455 19.8274 74.1087 19.9147 74.1384 20.011L75.0941 19.717ZM74.1664 18.8137C73.7917 18.6888 73.3966 18.628 72.9843 18.628V19.628C73.2972 19.628 73.5848 19.6739 73.8501 19.7623L74.1664 18.8137ZM72.9843 18.628C72.3571 18.628 71.7364 18.761 71.1254 19.0195L71.5151 19.9405C72.0134 19.7296 72.5021 19.628 72.9843 19.628V18.628ZM71.1189 19.0223C70.5077 19.2913 69.9934 19.6961 69.5806 20.2303L70.3719 20.8417C70.6845 20.4372 71.0661 20.1381 71.5216 19.9377L71.1189 19.0223ZM69.5719 20.2419C69.158 20.811 68.9642 21.4949 68.9642 22.264H69.9642C69.9642 21.6678 70.1119 21.1996 70.3806 20.8301L69.5719 20.2419ZM68.9642 22.264C68.9642 22.9097 69.0566 23.5353 69.2424 24.139L70.1981 23.845C70.0426 23.3393 69.9642 22.813 69.9642 22.264H68.9642ZM69.2498 24.1614C69.4408 24.6919 69.6533 25.2976 69.8874 25.9785L70.8331 25.6535C70.5978 24.9691 70.3837 24.3588 70.1907 23.8226L69.2498 24.1614ZM70.2264 25.3342L67.9224 25.9742L68.1901 26.9378L70.4941 26.2978L70.2264 25.3342ZM68.5285 26.2917C68.3542 25.7907 68.1687 25.3105 67.9718 24.851L67.0527 25.245C67.2398 25.6815 67.4169 26.1399 67.584 26.6203L68.5285 26.2917ZM67.9795 24.87C67.8181 24.4464 67.6864 24.0012 67.5848 23.5338L66.6077 23.7462C66.7194 24.2602 66.865 24.7536 67.045 25.226L67.9795 24.87ZM67.5848 23.5338C67.487 23.0838 67.4362 22.5761 67.4362 22.008H66.4362C66.4362 22.6345 66.4921 23.2148 66.6077 23.7462L67.5848 23.5338ZM67.4362 22.008C67.4362 21.209 67.6109 20.5165 67.948 19.9171L67.0765 19.4269C66.6456 20.1928 66.4362 21.0577 66.4362 22.008H67.4362ZM67.948 19.9171C68.2967 19.2974 68.7606 18.775 69.3439 18.3472L68.7526 17.5408C68.0559 18.0517 67.4958 18.6813 67.0765 19.4269L67.948 19.9171ZM69.3439 18.3472C69.9381 17.9115 70.5914 17.5846 71.3064 17.3662L71.0141 16.4098C70.1931 16.6607 69.4384 17.0379 68.7526 17.5408L69.3439 18.3472ZM71.3184 17.3623C72.0397 17.1219 72.7437 17.004 73.4323 17.004V16.004C72.6275 16.004 71.8168 16.1421 71.0021 16.4137L71.3184 17.3623ZM73.4323 17.004C73.7657 17.004 74.1234 17.0334 74.5063 17.0939L74.6622 16.1061C74.2344 16.0386 73.8242 16.004 73.4323 16.004V17.004ZM74.5101 17.0945C74.8558 17.1463 75.162 17.2743 75.4362 17.48L76.0362 16.68C75.6279 16.3737 75.1661 16.1817 74.6584 16.1055L74.5101 17.0945ZM75.4646 17.4998C75.7046 17.6551 75.914 17.9281 76.06 18.3844L77.0125 18.0796C76.8171 17.4693 76.4932 16.9743 76.0079 16.6602L75.4646 17.4998ZM76.0651 18.3995C76.4053 19.3561 76.7024 20.2262 76.9566 21.0103L77.9079 20.7017C77.6501 19.9071 77.3499 19.0279 77.0074 18.0645L76.0651 18.3995ZM76.962 21.0258C77.2481 21.8183 77.5713 22.512 77.9344 23.102L78.7861 22.578C78.4665 22.0587 78.171 21.4297 77.9025 20.6862L76.962 21.0258ZM77.9344 23.102C78.3203 23.729 78.8323 24.2184 79.4672 24.5602L79.9413 23.6798C79.4668 23.4243 79.0829 23.0603 78.7861 22.578L77.9344 23.102ZM79.4873 24.5705C80.1539 24.8914 80.9821 25.036 81.9443 25.036V24.036C81.0717 24.036 80.4066 23.9032 79.9212 23.6695L79.4873 24.5705ZM81.9443 25.036C82.3019 25.036 82.4407 25.1353 82.5042 25.22L83.3043 24.62C82.9838 24.1927 82.4826 24.036 81.9443 24.036V25.036ZM82.5343 25.2563C82.6572 25.3916 82.7243 25.5567 82.7243 25.784H83.7243C83.7243 25.3286 83.5779 24.9177 83.2742 24.5837L82.5343 25.2563ZM82.7243 25.784C82.7243 25.9627 82.6512 26.162 82.4227 26.3904L83.1298 27.0976C83.4986 26.7287 83.7243 26.2879 83.7243 25.784H82.7243ZM82.436 26.3776C82.2438 26.5561 81.9879 26.66 81.6243 26.66V27.66C82.1993 27.66 82.7113 27.4866 83.1165 27.1104L82.436 26.3776ZM81.5768 9.4L81.1596 9.67563L81.4301 10.0851L81.8445 9.82225L81.5768 9.4ZM80.3927 7.608L80.1307 7.18217L79.6909 7.4528L79.9756 7.88363L80.3927 7.608ZM83.3688 5.784L83.1115 5.35524L83.108 5.35736L83.3688 5.784ZM87.4007 3.448L87.1553 3.01237L87.4007 3.448ZM92.4248 0.727999L92.8792 0.519415L92.6595 0.040853L92.1929 0.284982L92.4248 0.727999ZM93.3207 2.68L93.5545 3.12202L93.9724 2.90105L93.7752 2.47141L93.3207 2.68ZM88.3607 5.368L88.1168 4.93152L88.1141 4.93308L88.3607 5.368ZM84.5527 7.576L84.2967 7.14652L84.5527 7.576ZM81.6087 27.16L81.1124 27.0995L81.0441 27.66H81.6087V27.16ZM81.9287 24.536V24.036H81.486L81.4324 24.4755L81.9287 24.536ZM87.9128 24.344L87.9997 24.8365L88.0108 24.8343L87.9128 24.344ZM89.5447 23.8L89.8098 24.2241L89.8164 24.2198L89.5447 23.8ZM90.2487 23.064L89.7948 22.8545L89.7908 22.863L89.7872 22.8717L90.2487 23.064ZM89.8647 20.408L89.4174 20.6317L89.4229 20.6419L89.8647 20.408ZM87.5928 17.592L87.2392 17.9456L87.5928 17.592ZM85.8008 15.96L85.4753 16.3397L85.4834 16.3464L85.8008 15.96ZM84.1367 14.616L83.8183 15.0015L83.8274 15.009L83.8367 15.016L84.1367 14.616ZM82.9528 13.592L83.293 13.2256V13.2256L82.9528 13.592ZM82.5687 12.024L82.0798 11.9192L82.0762 11.9362L82.0738 11.9533L82.5687 12.024ZM82.7927 11.192L82.3312 10.9997L82.3242 11.0166L82.3184 11.0339L82.7927 11.192ZM83.1768 10.584L83.5304 10.9377L83.5388 10.9288L83.1768 10.584ZM84.8087 9.24L84.5344 8.82193L84.5283 8.82604L84.8087 9.24ZM87.1768 7.832L86.9409 7.39108L86.9366 7.39345L87.1768 7.832ZM90.2487 6.264L90.469 6.71291L90.4724 6.71121L90.2487 6.264ZM94.0247 4.376L94.4791 4.16725L94.2633 3.69769L93.8011 3.92879L94.0247 4.376ZM95.1127 6.744L95.3273 7.19564L95.7732 6.98383L95.5671 6.53525L95.1127 6.744ZM90.8248 8.824L91.045 9.27291L91.0484 9.27121L90.8248 8.824ZM87.9447 10.328L88.1826 10.7679L88.1916 10.7628L87.9447 10.328ZM85.8647 11.544L86.1351 11.9646H86.1351L85.8647 11.544ZM84.0407 12.824L83.5757 12.6404L82.9198 14.302L84.3429 13.2223L84.0407 12.824ZM84.5208 11.608L84.8316 11.2164L84.3033 10.7971L84.0557 11.4244L84.5208 11.608ZM88.0727 14.616L87.7349 14.9846L87.7387 14.988L88.0727 14.616ZM90.6967 17.336L90.3072 17.6495L90.3111 17.6542L90.6967 17.336ZM92.2968 19.864L92.7551 19.6642L92.2968 19.864ZM92.5847 23.928L93.0626 24.075L92.5847 23.928ZM91.4967 25.496L91.1655 25.1215L91.4967 25.496ZM89.0007 26.712L89.1308 27.1949L89.1393 27.1924L89.0007 26.712ZM81.9939 9.12437L80.8099 7.33237L79.9756 7.88363L81.1596 9.67563L81.9939 9.12437ZM80.6548 8.03383C81.4862 7.52218 82.4778 6.91446 83.6295 6.21064L83.108 5.35736C81.9557 6.06153 80.9633 6.66982 80.1307 7.18217L80.6548 8.03383ZM83.626 6.21274C84.7945 5.51162 86.1345 4.73528 87.6462 3.88362L87.1553 3.01237C85.6377 3.86738 84.2896 4.64838 83.1115 5.35525L83.626 6.21274ZM87.6462 3.88362C89.1556 3.03325 90.8256 2.12906 92.6566 1.17102L92.1929 0.284982C90.3545 1.24694 88.6752 2.15608 87.1553 3.01237L87.6462 3.88362ZM91.9703 0.936583L92.8663 2.88858L93.7752 2.47141L92.8792 0.519415L91.9703 0.936583ZM93.087 2.23798C91.2285 3.22068 89.5716 4.11856 88.1168 4.93153L88.6047 5.80447C90.0512 4.99611 91.701 4.10199 93.5545 3.12202L93.087 2.23798ZM88.1141 4.93308C86.6824 5.74508 85.4099 6.48293 84.2967 7.14652L84.8088 8.00547C85.9143 7.34641 87.1804 6.61226 88.6074 5.80292L88.1141 4.93308ZM84.2967 7.14652C83.1844 7.80967 82.1883 8.42011 81.309 8.97775L81.8445 9.82225C82.7145 9.27056 83.7025 8.665 84.8088 8.00547L84.2967 7.14652ZM82.1051 27.2205L82.4251 24.5965L81.4324 24.4755L81.1124 27.0995L82.1051 27.2205ZM81.9287 25.036H84.9368V24.036H81.9287V25.036ZM84.9368 25.036C86.2072 25.036 87.2325 24.9718 87.9996 24.8364L87.8259 23.8516C87.1423 23.9722 86.1836 24.036 84.9368 24.036V25.036ZM88.0108 24.8343C88.7736 24.6817 89.3899 24.4864 89.8097 24.224L89.2797 23.376C89.0169 23.5403 88.5453 23.7076 87.8147 23.8537L88.0108 24.8343ZM89.8164 24.2198C90.22 23.9586 90.5486 23.6443 90.7103 23.2563L89.7872 22.8717C89.7356 22.9957 89.5948 23.1721 89.2731 23.3802L89.8164 24.2198ZM90.7027 23.2735C90.8579 22.9372 90.9408 22.5887 90.9408 22.232H89.9408C89.9408 22.4299 89.8956 22.6361 89.7948 22.8545L90.7027 23.2735ZM90.9408 22.232C90.9408 21.6223 90.7062 20.9288 90.3066 20.1741L89.4229 20.6419C89.7913 21.3378 89.9408 21.8604 89.9408 22.232H90.9408ZM90.312 20.1844C89.9116 19.3837 89.106 18.3982 87.9463 17.2384L87.2392 17.9456C88.3835 19.0898 89.0926 19.9817 89.4175 20.6316L90.312 20.1844ZM87.9463 17.2384C87.3385 16.6306 86.7291 16.0755 86.1181 15.5736L85.4834 16.3464C86.067 16.8258 86.6523 17.3587 87.2392 17.9456L87.9463 17.2384ZM86.1261 15.5804C85.5224 15.0628 84.9591 14.6078 84.4368 14.216L83.8367 15.016C84.3384 15.3922 84.8845 15.8332 85.4754 16.3396L86.1261 15.5804ZM84.4552 14.2305C83.9683 13.8283 83.5818 13.4938 83.293 13.2256L82.6125 13.9584C82.921 14.2449 83.3238 14.593 83.8183 15.0015L84.4552 14.2305ZM83.293 13.2256C83.1568 13.0991 83.0728 13.0036 83.0264 12.9373C83.0037 12.9049 82.9961 12.888 82.9951 12.8856C82.9939 12.8827 83.0048 12.9071 83.0048 12.952H82.0048C82.0048 13.1807 82.1124 13.3754 82.2071 13.5107C82.3101 13.6578 82.4501 13.8076 82.6125 13.9584L83.293 13.2256ZM83.0048 12.952C83.0048 12.6542 83.0246 12.3686 83.0637 12.0947L82.0738 11.9533C82.0276 12.2767 82.0048 12.6098 82.0048 12.952H83.0048ZM83.0576 12.1288C83.1183 11.8458 83.1883 11.5865 83.2671 11.3501L82.3184 11.0339C82.2265 11.3095 82.1472 11.6048 82.0798 11.9192L83.0576 12.1288ZM83.2543 11.3843C83.3433 11.1707 83.4391 11.0287 83.5303 10.9376L82.8232 10.2304C82.6157 10.438 82.4555 10.7013 82.3312 10.9997L83.2543 11.3843ZM83.5388 10.9288C83.9349 10.5129 84.4494 10.0874 85.0892 9.65396L84.5283 8.82604C83.8455 9.28863 83.2719 9.75906 82.8147 10.2392L83.5388 10.9288ZM85.0831 9.65802C85.7523 9.21885 86.5298 8.75633 87.4169 8.27055L86.9366 7.39345C86.0317 7.889 85.2305 8.36514 84.5344 8.82198L85.0831 9.65802ZM87.4126 8.27289C88.3238 7.78548 89.3425 7.2655 90.469 6.71289L90.0285 5.81511C88.8937 6.37183 87.8643 6.89718 86.9409 7.39111L87.4126 8.27289ZM90.4724 6.71121C91.6244 6.13521 92.883 5.50588 94.2484 4.82321L93.8011 3.92879C92.4358 4.61145 91.1771 5.24079 90.0251 5.81679L90.4724 6.71121ZM93.5704 4.58475L94.6584 6.95275L95.5671 6.53525L94.4791 4.16725L93.5704 4.58475ZM94.8982 6.29236C93.1898 7.10387 91.7572 7.79876 90.6011 8.37679L91.0484 9.27121C92.1963 8.69723 93.6224 8.00546 95.3273 7.19564L94.8982 6.29236ZM90.6045 8.3751C89.468 8.93264 88.4986 9.43873 87.6979 9.89316L88.1916 10.7628C88.9696 10.3213 89.9201 9.82469 91.045 9.27289L90.6045 8.3751ZM87.707 9.88815C86.9093 10.3193 86.2047 10.7311 85.5944 11.1234L86.1351 11.9646C86.7195 11.5889 87.4015 11.19 88.1825 10.7679L87.707 9.88815ZM85.5944 11.1234C84.9852 11.515 84.3666 11.9492 83.7386 12.4257L84.3429 13.2223C84.9522 12.7601 85.5496 12.341 86.1351 11.9646L85.5944 11.1234ZM84.5058 13.0076L84.9858 11.7916L84.0557 11.4244L83.5757 12.6404L84.5058 13.0076ZM84.2099 11.9996C85.5467 13.0606 86.7214 14.0555 87.7349 14.9846L88.4106 14.2474C87.3761 13.2992 86.1828 12.2888 84.8316 11.2164L84.2099 11.9996ZM87.7387 14.988C88.7687 15.913 89.6237 16.8002 90.3072 17.6495L91.0863 17.0225C90.3618 16.1224 89.4674 15.1964 88.4068 14.244L87.7387 14.988ZM90.3111 17.6542C90.9917 18.4792 91.4979 19.2826 91.8384 20.0638L92.7551 19.6642C92.3703 18.7814 91.8098 17.8995 91.0824 17.0178L90.3111 17.6542ZM91.8384 20.0638C92.1754 20.8368 92.3408 21.6117 92.3408 22.392H93.3408C93.3408 21.4656 93.1435 20.5552 92.7551 19.6642L91.8384 20.0638ZM92.3408 22.392C92.3408 22.8013 92.2662 23.2631 92.1069 23.781L93.0626 24.075C93.2446 23.4835 93.3408 22.9213 93.3408 22.392H92.3408ZM92.1069 23.781C91.9697 24.2266 91.67 24.6752 91.1655 25.1215L91.828 25.8705C92.4328 25.3355 92.8584 24.7387 93.0626 24.075L92.1069 23.781ZM91.1655 25.1215C90.6888 25.5432 89.936 25.9218 88.8622 26.2316L89.1393 27.1924C90.2841 26.8622 91.1954 26.4302 91.828 25.8705L91.1655 25.1215ZM88.8708 26.2292C87.822 26.5116 86.3782 26.66 84.5208 26.66V27.66C86.418 27.66 87.9608 27.5098 89.1307 27.1948L88.8708 26.2292ZM84.5208 26.66H81.6087V27.66H84.5208V26.66ZM94.9242 34.424L94.4571 34.6023L94.618 35.0239L95.0538 34.9069L94.9242 34.424ZM93.9962 31.992L93.8401 31.517L93.3423 31.6807L93.5291 32.1703L93.9962 31.992ZM97.8682 30.232L97.6009 29.8094L97.597 29.812L97.8682 30.232ZM100.332 28.12L99.9472 27.8009L99.9418 27.8077L100.332 28.12ZM101.644 25.848L102.119 26.0061L102.12 26.0023L101.644 25.848ZM101.324 20.408L100.862 20.5984L100.867 20.6094L101.324 20.408ZM99.8203 17.336L99.5942 16.89L99.1231 17.1288L99.3873 17.5861L99.8203 17.336ZM102.156 16.152L102.596 15.9135L102.364 15.4863L101.93 15.706L102.156 16.152ZM103.212 18.36L102.75 18.5504L102.755 18.5618L103.212 18.36ZM104.044 20.408L103.575 20.5801L103.577 20.5869L103.58 20.5937L104.044 20.408ZM104.652 22.168L104.171 22.3028L104.174 22.3129L104.177 22.3228L104.652 22.168ZM105.804 24.056L105.51 24.4604L105.52 24.4679L105.531 24.4748L105.804 24.056ZM108.748 24.92L108.348 25.22L108.362 25.2389L108.378 25.2563L108.748 24.92ZM108.62 26.744L108.96 27.1104L108.967 27.1041L108.974 27.0976L108.62 26.744ZM105.164 26.68L104.909 27.1101L104.919 27.1156L104.928 27.1207L105.164 26.68ZM103.852 25.368L103.412 25.6051L103.416 25.6123L103.852 25.368ZM103.244 23.64L103.489 23.2042L102.566 22.6847L102.752 23.7279L103.244 23.64ZM104.268 24.216H104.768V23.9236L104.513 23.7802L104.268 24.216ZM103.308 28.056L102.871 27.8131L102.866 27.8228L103.308 28.056ZM100.908 31.096L100.58 30.7187L100.576 30.7227L100.908 31.096ZM97.8363 33.24L97.6056 32.7964L97.8363 33.24ZM95.3914 34.2457L94.4634 31.8137L93.5291 32.1703L94.4571 34.6023L95.3914 34.2457ZM94.1524 32.467C95.7373 31.9459 97.0698 31.3429 98.1395 30.652L97.597 29.812C96.6187 30.4438 95.3698 31.0141 93.8401 31.517L94.1524 32.467ZM98.1356 30.6545C99.2147 29.9718 100.082 29.2329 100.723 28.4323L99.9418 27.8077C99.3876 28.5004 98.6124 29.1695 97.6009 29.8095L98.1356 30.6545ZM100.717 28.439C101.368 27.6539 101.84 26.8432 102.119 26.0061L101.17 25.6899C100.937 26.3888 100.534 27.0928 99.9472 27.801L100.717 28.439ZM102.12 26.0023C102.39 25.1701 102.528 24.3606 102.528 23.576H101.528C101.528 24.242 101.411 24.9472 101.169 25.6937L102.12 26.0023ZM102.528 23.576C102.528 22.4538 102.276 21.3294 101.782 20.2066L100.867 20.6094C101.311 21.6199 101.528 22.6076 101.528 23.576H102.528ZM101.787 20.2176C101.331 19.1103 100.82 18.0662 100.253 17.0859L99.3873 17.5861C99.9302 18.5258 100.422 19.5297 100.862 20.5984L101.787 20.2176ZM100.046 17.782L102.382 16.598L101.93 15.706L99.5942 16.89L100.046 17.782ZM101.717 16.3905C102.114 17.1228 102.459 17.8428 102.75 18.5504L103.675 18.1696C103.369 17.4265 103.009 16.6745 102.596 15.9135L101.717 16.3905ZM102.755 18.5618C103.071 19.2789 103.344 19.9516 103.575 20.5801L104.514 20.2359C104.275 19.5844 103.993 18.8918 103.67 18.1582L102.755 18.5618ZM103.58 20.5937C103.831 21.2209 104.027 21.7903 104.171 22.3028L105.134 22.0332C104.979 21.479 104.77 20.8751 104.508 20.2223L103.58 20.5937ZM104.177 22.3228C104.488 23.2801 104.916 24.028 105.51 24.4604L106.098 23.6516C105.754 23.4013 105.413 22.8906 105.128 22.0132L104.177 22.3228ZM105.531 24.4748C106.13 24.8657 106.898 25.036 107.788 25.036V24.036C107.014 24.036 106.459 23.8863 106.077 23.6372L105.531 24.4748ZM107.788 25.036C108.146 25.036 108.285 25.1353 108.348 25.22L109.148 24.62C108.828 24.1927 108.327 24.036 107.788 24.036V25.036ZM108.378 25.2563C108.501 25.3916 108.568 25.5567 108.568 25.784H109.568C109.568 25.3286 109.422 24.9177 109.118 24.5837L108.378 25.2563ZM108.568 25.784C108.568 25.9627 108.495 26.162 108.267 26.3904L108.974 27.0976C109.343 26.7287 109.568 26.2879 109.568 25.784H108.568ZM108.28 26.3776C108.088 26.5561 107.832 26.66 107.468 26.66V27.66C108.043 27.66 108.555 27.4866 108.96 27.1104L108.28 26.3776ZM107.468 26.66C106.582 26.66 105.903 26.5083 105.4 26.2393L104.928 27.1207C105.621 27.4917 106.477 27.66 107.468 27.66V26.66ZM105.419 26.2499C104.911 25.949 104.54 25.573 104.289 25.1237L103.416 25.6123C103.762 26.2297 104.265 26.7283 104.909 27.1101L105.419 26.2499ZM104.292 25.131C104.018 24.6211 103.833 24.0953 103.736 23.5521L102.752 23.7279C102.868 24.3794 103.089 25.0055 103.412 25.605L104.292 25.131ZM102.999 24.0758L104.023 24.6518L104.513 23.7802L103.489 23.2042L102.999 24.0758ZM103.768 24.216C103.768 25.545 103.467 26.7405 102.871 27.8132L103.745 28.2988C104.429 27.0675 104.768 25.703 104.768 24.216H103.768ZM102.866 27.8228C102.276 28.9426 101.514 29.9067 100.58 30.7187L101.236 31.4733C102.265 30.5786 103.104 29.5161 103.751 28.2892L102.866 27.8228ZM100.576 30.7227C99.6223 31.5724 98.6322 32.2625 97.6056 32.7964L98.0669 33.6836C99.1736 33.1081 100.232 32.369 101.241 31.4693L100.576 30.7227ZM97.6056 32.7964C96.5613 33.3394 95.6251 33.7183 94.7947 33.9411L95.0538 34.9069C95.9728 34.6604 96.9779 34.2499 98.0669 33.6836L97.6056 32.7964ZM107.484 27.16L106.987 27.1054L106.926 27.66H107.484V27.16ZM107.772 24.536V24.036H107.324L107.275 24.4814L107.772 24.536ZM111.036 24.28L111.115 24.7737L111.036 24.28ZM117.116 22.392L117.331 22.8433L117.335 22.8412L117.116 22.392ZM119.836 20.792L120.122 21.2016L120.642 20.8378L120.167 20.4175L119.836 20.792ZM117.916 19.512L117.692 19.9592L117.916 19.512ZM115.516 18.68L115.394 19.1651L115.401 19.1668L115.409 19.1684L115.516 18.68ZM111.836 18.392L111.8 17.8933L111.836 18.392ZM110.94 18.52L111.01 19.015L111.028 19.0125L111.045 19.0089L110.94 18.52ZM109.916 18.712L109.426 18.815L109.531 19.3098L110.024 19.2001L109.916 18.712ZM109.404 16.28L109.262 15.8006L108.819 15.9316L108.914 16.383L109.404 16.28ZM111.132 15.896L111.205 16.3906L111.214 16.3893L111.223 16.3876L111.132 15.896ZM115.804 16.152L115.656 16.6298L115.666 16.6328L115.804 16.152ZM118.236 17.112L118.002 17.5539L118.007 17.5566L118.236 17.112ZM120.316 18.264L120.058 18.6928L120.065 18.6964L120.316 18.264ZM122.236 19.256L122.031 19.7123L122.038 19.7152L122.045 19.718L122.236 19.256ZM124.828 19.64L125.325 19.5916L125.281 19.14H124.828V19.64ZM125.052 21.944V22.444H125.603L125.549 21.8956L125.052 21.944ZM122.524 22.328L122.366 21.8537L122.524 22.328ZM120.252 23.32L120.486 23.7619L120.49 23.7594L120.252 23.32ZM117.948 24.568L118.181 25.0106L118.19 25.0056L117.948 24.568ZM115.26 25.816L115.442 26.2817L115.451 26.2781L115.26 25.816ZM111.868 26.776L111.77 26.2857L111.768 26.286L111.868 26.776ZM115.26 32.472L114.906 32.8256L115.26 32.472ZM115.26 30.264L114.906 29.9104L114.9 29.9165L114.894 29.9228L115.26 30.264ZM117.5 30.264L117.134 30.6052L117.14 30.6115L117.146 30.6176L117.5 30.264ZM117.5 32.472L117.159 32.1065L117.146 32.1182L117.134 32.1308L117.5 32.472ZM107.981 27.2146L108.269 24.5905L107.275 24.4814L106.987 27.1054L107.981 27.2146ZM107.772 25.036C108.907 25.036 110.021 24.9487 111.115 24.7737L110.957 23.7863C109.917 23.9527 108.855 24.036 107.772 24.036V25.036ZM111.115 24.7737C112.205 24.5993 113.274 24.3485 114.321 24.0212L114.023 23.0668C113.022 23.3795 112 23.6194 110.957 23.7863L111.115 24.7737ZM114.321 24.0212C115.367 23.6944 116.37 23.3018 117.331 22.8432L116.9 21.9408C115.984 22.3782 115.025 22.7536 114.023 23.0668L114.321 24.0212ZM117.335 22.8412C118.318 22.3607 119.247 21.8142 120.122 21.2016L119.549 20.3824C118.718 20.9644 117.833 21.4846 116.896 21.9428L117.335 22.8412ZM120.167 20.4175C119.577 19.8954 118.9 19.4451 118.139 19.0648L117.692 19.9592C118.382 20.3043 118.985 20.7072 119.504 21.1665L120.167 20.4175ZM118.139 19.0648C117.373 18.6818 116.534 18.3916 115.623 18.1916L115.409 19.1684C116.247 19.3524 117.007 19.6168 117.692 19.9592L118.139 19.0648ZM115.637 18.1949C114.741 17.9708 113.793 17.86 112.796 17.86V18.86C113.719 18.86 114.584 18.9625 115.394 19.1651L115.637 18.1949ZM112.796 17.86C112.444 17.86 112.112 17.871 111.8 17.8933L111.871 18.8907C112.157 18.8703 112.465 18.86 112.796 18.86V17.86ZM111.8 17.8933C111.478 17.9163 111.156 17.9623 110.835 18.0311L111.045 19.0089C111.321 18.9497 111.596 18.9104 111.871 18.8907L111.8 17.8933ZM110.869 18.025C110.555 18.0699 110.2 18.1366 109.807 18.2239L110.024 19.2001C110.399 19.1168 110.728 19.0554 111.01 19.015L110.869 18.025ZM110.405 18.609L109.893 16.177L108.914 16.383L109.426 18.815L110.405 18.609ZM109.546 16.7594C110.1 16.5952 110.653 16.4724 111.205 16.3906L111.058 15.4014C110.459 15.4903 109.86 15.6235 109.262 15.8006L109.546 16.7594ZM111.223 16.3876C111.772 16.286 112.296 16.236 112.796 16.236V15.236C112.229 15.236 111.644 15.2927 111.041 15.4044L111.223 16.3876ZM112.796 16.236C113.864 16.236 114.816 16.3695 115.656 16.6296L115.952 15.6744C115 15.3798 113.946 15.236 112.796 15.236V16.236ZM115.666 16.6328C116.533 16.8805 117.311 17.1882 118.002 17.5539L118.47 16.6701C117.71 16.2678 116.866 15.9355 115.941 15.6712L115.666 16.6328ZM118.007 17.5566C118.745 17.9363 119.429 18.315 120.059 18.6927L120.573 17.8353C119.923 17.445 119.22 17.0557 118.464 16.6674L118.007 17.5566ZM120.065 18.6964C120.739 19.0881 121.395 19.427 122.031 19.7123L122.44 18.7997C121.839 18.5304 121.215 18.2079 120.567 17.8316L120.065 18.6964ZM122.045 19.718C122.723 19.9988 123.428 20.14 124.156 20.14V19.14C123.561 19.14 122.986 19.0252 122.427 18.794L122.045 19.718ZM124.156 20.14H124.828V19.14H124.156V20.14ZM124.33 19.6884L124.554 21.9924L125.549 21.8956L125.325 19.5916L124.33 19.6884ZM125.052 21.444C124.088 21.444 123.191 21.5786 122.366 21.8537L122.682 22.8023C123.393 22.5654 124.181 22.444 125.052 22.444V21.444ZM122.366 21.8537C121.569 22.1194 120.784 22.462 120.013 22.8806L120.49 23.7594C121.212 23.3674 121.943 23.0486 122.682 22.8023L122.366 21.8537ZM120.018 22.8781C119.29 23.2637 118.519 23.6811 117.706 24.1304L118.19 25.0056C118.998 24.5589 119.763 24.1443 120.486 23.7619L120.018 22.8781ZM117.715 24.1255C116.92 24.544 116.038 24.9535 115.069 25.3539L115.451 26.2781C116.444 25.8678 117.354 25.4454 118.181 25.0105L117.715 24.1255ZM115.078 25.3504C114.129 25.7215 113.027 26.0342 111.77 26.2857L111.966 27.2663C113.268 27.0058 114.428 26.6785 115.442 26.2816L115.078 25.3504ZM111.768 26.286C110.55 26.5337 109.124 26.66 107.484 26.66V27.66C109.172 27.66 110.668 27.5303 111.967 27.266L111.768 26.286ZM116.412 32.452C116.098 32.452 115.841 32.3457 115.613 32.1184L114.906 32.8256C115.319 33.2383 115.83 33.452 116.412 33.452V32.452ZM115.613 32.1184C115.409 31.9146 115.312 31.6796 115.312 31.384H114.312C114.312 31.9418 114.513 32.4321 114.906 32.8256L115.613 32.1184ZM115.312 31.384C115.312 31.0876 115.411 30.8352 115.625 30.6052L114.894 29.9228C114.512 30.3328 114.312 30.8271 114.312 31.384H115.312ZM115.613 30.6176C115.841 30.3903 116.098 30.284 116.412 30.284V29.284C115.83 29.284 115.319 29.4977 114.906 29.9104L115.613 30.6176ZM116.412 30.284C116.696 30.284 116.927 30.3835 117.134 30.6052L117.865 29.9228C117.475 29.5045 116.981 29.284 116.412 29.284V30.284ZM117.146 30.6176C117.379 30.8501 117.48 31.0986 117.48 31.384H118.48C118.48 30.8161 118.261 30.3179 117.853 29.9104L117.146 30.6176ZM117.48 31.384C117.48 31.6681 117.38 31.8996 117.159 32.1065L117.841 32.8375C118.259 32.4471 118.48 31.9533 118.48 31.384H117.48ZM117.134 32.1308C116.927 32.3525 116.696 32.452 116.412 32.452V33.452C116.981 33.452 117.475 33.2315 117.865 32.8132L117.134 32.1308Z" fill="black" mask="url(#path-1-outside-1_1_4)"/>
</svg>
